<svg xmlns="http://www.w3.org/2000/svg" width="32" height="32" viewBox="0 0 32 32">
  <defs>
    <style>
      .cls-1 {
        fill: #3e3e3e;
        fill-rule: evenodd;
      }
    </style>
  </defs>
  <path id="Home" class="cls-1" d="M819.105,2992.85l-13-13.02a3.078,3.078,0,0,0-4.242,0l-13,13.02a3,3,0,0,0,0,4.24,2.968,2.968,0,0,0,2.121.88,3.051,3.051,0,0,0,1-.18v11.19a2.006,2.006,0,0,0,2,2.01h4a2.006,2.006,0,0,0,2-2.01v-7h8v7a2.006,2.006,0,0,0,2,2.01h4a2.006,2.006,0,0,0,2-2.01v-11.19a3.056,3.056,0,0,0,1,.18,2.965,2.965,0,0,0,2.121-.88A3,3,0,0,0,819.105,2992.85Zm-15.121-11.89a1,1,0,0,1,.707,1.7l-0.707.71-0.707-.71a1,1,0,0,1,0-1.41A0.986,0.986,0,0,1,803.984,2980.96Zm-13.707,14.72a1.01,1.01,0,0,1,0-1.42l11.01-11.02a3.01,3.01,0,0,0,.576.84l0.707,0.71-10.879,10.89A1.039,1.039,0,0,1,790.277,2995.68Zm19.707,13.3v-7a2.006,2.006,0,0,0-2-2.01h-8a2.006,2.006,0,0,0-2,2.01v7h-4v-12.77l10-10.01,10,10.01v12.77h-4Zm7.707-13.3a1.039,1.039,0,0,1-1.414,0L805.4,2984.79l0.707-.71a3.014,3.014,0,0,0,.577-0.84l11.009,11.02A1.008,1.008,0,0,1,817.691,2995.68Zm-13.707-5.72a4.005,4.005,0,1,0,4,4.01A4.011,4.011,0,0,0,803.984,2989.96Zm0,6.01a2,2,0,1,1,2-2A2,2,0,0,1,803.984,2995.97Z" transform="translate(-788 -2979)"/>
</svg>
